<svg xmlns="http://www.w3.org/2000/svg" xmlns:xlink="http://www.w3.org/1999/xlink" version="1.1" x="0px" y="0px" viewBox="0 0 100 125" enable-background="new 0 0 100 100" xml:space="preserve"><g><path d="M99.133,27.077c0.066-0.934-0.888-0.849-1.085-1.519c-0.215-1.015-0.653-1.806-0.868-2.82   c-0.539,0.034-0.672-0.341-1.084-0.434c-0.356,0.695-0.726,0.554-1.519,0.434c-0.329,0.683-0.647,1.378-0.868,2.169   c0.503,0.61-0.28,1.248,0.217,1.953c-0.51,0.254-0.377,0.896-0.65,1.301c-0.165,0.244-0.694,0.228-0.867,0.435   c-0.283,0.338,0.225,0.971-0.434,0.867c-0.432-0.361-0.276,0.02-0.868,0c-1.093,0.859-3.182,0.724-4.556,1.302   c-0.556,0.528-0.797,1.373-1.302,1.952c0.195,1.786-0.387,2.795-1.735,3.037c-1.106-0.375-2.205-0.049-3.036,0.434   c-0.022,0.673,0.682,0.619,0.434,1.519c-0.678,0.913-1.683,1.499-2.603,2.169c-0.311,0.085-0.366,0.261-0.651,0   c-0.316,1.058-1.39,1.357-2.386,1.735c-0.444-0.352-1.422-0.169-1.735-0.65c0.472-0.468,0.837-1.042,0.867-1.952   c0.317-0.188,0.688-0.325,0.651-0.868c0.127-0.778-0.252-1.049-0.434-1.518c-0.381-0.343-0.451-0.997-1.085-1.085   c-0.806-0.011-0.529,1.062-1.302,1.085c-0.271-0.674,0.281-0.788,0.434-1.085c0.207-0.404,0.303-0.613,0.434-1.085   c0.242-1.037-0.676-0.915-0.434-1.952c-1.145-0.017-2.223-1.24-3.471-0.434c0.305,0.057,0.247,0.476,0.434,0.65   c-0.833,0.188-0.524,0.506-0.434,1.302c-0.681,0.106-0.573-0.748-1.084-0.217c-0.439,0.288-0.655,1.45-0.218,1.952   c-1.031,0.726-0.157,2.763,0.218,3.471c-0.213,1.162-0.127,2.621-1.303,2.819c-0.517-0.567-1.062-1.106-1.301-1.952   c-0.105-2.563,0.072-4.845,0.867-6.507c-0.814-0.429-0.733,1.111-1.084,0.434c0.266-0.892,0.838-1.476,1.301-2.169   c0.695,0.669,0.766-0.51,1.52-0.435c1.334,0.178,2.14-0.173,3.036-0.434c0.157-1.314-1.87-0.443-1.735-1.735   c-0.643,0.152-0.944,0.646-1.952,0.435c-0.521,0.201-0.574,0.871-1.519,0.65c-0.636-0.016-0.806-0.496-1.084-0.868   c-0.539-0.281-1.053,0.484-1.085,0c0.313-0.337,0.456-0.845,0.65-1.302c-1.12-0.18-1.034,0.846-1.735,1.085   c-1.152,0.221-1.498,1.249-2.819,1.302c0.068-0.293,0.309-0.414,0.217-0.867c-0.994,0.018-1.315,0.709-2.386,0.65   c0.708-0.738,1.327-1.564,2.169-2.17c0.741-0.343,1.638-0.53,2.169-1.084c-0.702,0.198-1.341-0.217-1.519-0.217   c-0.176,0-0.31,0.248-0.434,0.217c-0.25-0.063-0.417-0.449-0.651-0.434c-0.306,0.02-0.406,0.605-0.867,0.434   c-0.892-0.482-1.754-0.994-2.82-1.302c-0.702,0.676-1.326,0.063-2.386,0c-0.063-0.66,0.034-1.48-0.651-1.519   c-0.589-0.154,0.156,1.023-0.434,0.867c-7.709,0.016-15.595-0.737-22.125-1.518c-3.352-0.4-6.514-0.879-9.111-1.519   c-0.95-0.233-1.867-0.323-2.603-0.868c-0.214,0.666-0.579-0.249-0.868-0.217c-1.297,0.071-2.855-0.497-4.338-0.867   c-1.555-0.389-3.059-0.813-4.556-1.085c-0.439,0.65,0.096,1.548-0.217,1.952c-1.174-0.344-2.112-0.924-3.254-1.301   c-0.618,1.573,0.277,4.192-0.434,5.205c0.324,0.037,0.8-0.077,0.867,0.217c-0.503-0.068-0.833,0.035-1.085,0.218   c0.258,1.198-0.691,1.188-0.434,2.386c-0.698,0.748-1.124,1.768-1.301,3.037c-0.502,0.438-1.159,0.721-1.302,1.519   C1.779,35.074,0.793,36.618,0,38.356c0.039,0.489,0.361,0.64,0.434,1.085c0.165,1.007-0.339,1.97-0.434,2.819   c0.219,0.433,0.542,0.76,0.867,1.085c-0.415,0.024,0.256,0.727,0,1.302c0.833-0.109,0.144,1.303,0.868,1.302   c-0.321,0.04-0.199,0.523-0.217,0.867c0.747,0.944,0.552,1.05,0.434,2.387c0.696,1.534,1.535,2.784,1.085,4.917   C4.438,54.31,5.28,55,5.856,56c0.29,0,0.579,0,0.868,0C6.897,57,8,57.459,8,58.747c0,0.506,0,1.013,0,1.519   c2,0.046,3.049,0.507,4.785,0.434c0.545,0.382,0.268,0.358,0.549,0.868c2.389,1.154,4.61,2.533,6.782,3.904   c2.09,0.224,3.931,0.727,6.103,0.867c-0.032-0.538,0.126-0.9,0.448-1.084c0.993,0.235,2.131,0.334,3.262,0.434   c0.707,2.04,3.293,2.205,3.039,5.206c1.052,0.756,2.011,1.607,3.256,2.169c0.418-0.594,0.748-1.276,1.303-1.734   c0.738-0.377,1.272,0.166,2.387,0c0.63,1.249,1.806,1.954,1.952,3.688c0.289,0.217,0.655,0.357,0.868,0.65   c-0.267,0.989,0.761,0.686,0.867,1.302c-0.479,0.808,0.784,1.448,0.651,2.603c0.699,0.168,1.281,0.453,1.734,0.868   c1.104-0.206,1.824,0.784,2.387,0.434c0.141-0.792-0.146-1.248-0.434-1.611C48.527,78.564,47.619,78,47.723,77   c0.217,0,0.434,0,0.65,0c-0.107-1,1.146-1.074,1.302-2.076c0.277,0.012,0.3,0.324,0.65,0.264c0.66-0.383-0.592-0.649,0-0.846   c0.891,0.542,0.868-0.378,1.952-0.205c0.537-0.62,0.988-1.32,1.302-2.163c1.163,0.709,1.513-0.438,2.386-0.647   c0.824,0.332,1.624,0.691,2.82,0.652c0.458-0.193,0.642-0.66,1.302-0.65c0.333,1.063,2.987,1.958,3.688,0.651   c0.215,0.495,1.776,1.004,1.952,0.217c-0.49-0.232-0.954-0.492-1.302-0.867c0.272-0.09,0.443-0.28,0.435-0.651   c-0.505-0.396-1.545,0.214-1.953-0.65c0.378,0.017,0.675-0.049,0.868-0.218c-0.028,0.39,0.216,0.508,0.65,0.435   c0.941-0.37,1.209-0.712,2.386-0.435c0.37-0.136,0.357-0.654,0.651-0.867c0.279,0.372,0.448,0.853,1.085,0.867   c0.451-0.271,0.914-0.531,1.301-0.867c0.449,0.708,1.861,0.453,2.82,0.65c0.524,0.271,0.497,1.095,1.302,1.085   c0.589-0.424,0.987-1.037,1.735-1.302c1.476,0.332,1.969,1.646,3.254,2.17c0.573,0.655,0.139,2.32,1.084,2.603   c-0.44,0.61-0.389,0.891-0.217,1.735c0.231,0.42,1,0.303,1.302,0.65c0.063,0.732,0.815,0.775,0.651,1.736   c0.41,0.24,1.024,0.276,1.518,0.434c-0.023,0.819,0.425,1.166,1.085,1.301c0.41,0.049,0.479-0.244,0.867-0.217   c0.371-0.931,0.739-1.863,0.651-3.254c-1.398-3.518-3.447-6.386-4.989-9.761c0.717-0.325-0.451-0.53-0.217-1.085   c0.446-0.434,0.803-0.804,0.434-1.519c0.604-0.407,0.805-1.22,1.085-1.952c0.309,0.053,0.365,0.357,0.65,0.434   c0.416-0.813,1.146-1.312,1.735-1.952c-0.082-1.022,0.52-1.36,0.868-1.952c0.293-0.068,0.414-0.309,0.867-0.217   c-0.023-1.036,0.889-1.137,1.084-1.952c0.697,0.19,0.45-0.563,0.868-0.65c0.495,0.061,0.815-0.053,0.868-0.435   c-0.835-0.34-0.43-0.157-0.217-0.854C88.913,54.229,88.221,54,88.286,54c0.579,0,1.157,0,1.735,0c-0.005-1,0.374-0.65,0.217-1.314   c-0.984-0.406-0.295,0.855-1.084,0.645c0.012-0.277,0.277-0.304,0.217-0.653c-0.733-0.347-0.926,0.92-1.302,0.216   c0.2-0.379,0.679-0.48,1.302-0.436c0.455-0.786,0.215-1.03,0.217-2.271C88.526,50.308,88.472,50,87.853,49c0.145,0,0.289,0,0.434,0   c-0.138-1-0.959-0.963-0.434-1.851c-0.981-0.177-0.435-1.829-1.085-2.336c0.432-0.002,0.276-0.566,0.868-0.408   c-0.627,0.788,0.734,1.436,0,2.398c0.444,0.206,1.032,0.276,1.085,0.875c0.69-0.186,0.823,0.192,1.084,0.437   c0.416-0.524,0.137-1.742,0.217-2.602c-0.586-0.209-1.047-0.542-1.084-1.3c0.504,0.146,0.58,0.721,1.084,0.868   c0.232-0.49,0.492-0.824,0.868-1.172C90.949,42.692,90.933,41,90.455,41c0.435,0,0.868,0,1.302,0c0.319-1,1.609-0.689,1.735-1.647   c-1.053-0.319-1.764,0.761-2.386,0.153c1.194-0.541,2.205-1.298,3.688-1.551c0.037-0.324-0.077-0.817,0.217-0.883   c0.454,0.125,0.619,0.529,1.302,0.425c-0.157-0.664,0.374-0.643,0.217-1.306c-0.418-0.522-1.16-0.722-1.519-1.304   c0.197-1.031,0.512-1.966,0.453-3.255C96.415,31.861,96,30.898,97,30.981c0-0.434,0-0.867,0-1.301c1,0.223,0.416-0.338,0.85-0.651   c0.522-0.089,0.463,0.396,1.076,0.217c0.063-0.876,0.943-0.931,1.079-1.735C99.972,27.109,99.266,27.378,99.133,27.077z"/></g><text x="0" y="115" fill="#000000" font-size="5px" font-weight="bold" font-family="'Helvetica Neue', Helvetica, Arial-Unicode, Arial, Sans-serif">Created by Bohdan Burmich</text><text x="0" y="120" fill="#000000" font-size="5px" font-weight="bold" font-family="'Helvetica Neue', Helvetica, Arial-Unicode, Arial, Sans-serif">from the Noun Project</text></svg>